<?xml version="1.0" encoding="utf-8"?>
<svg version="1.1" xmlns="http://www.w3.org/2000/svg" viewBox="0 0 58 58" id="logo-future">
<g clip-path="url(#clip0)">
<path d="M28.9747 9.00007H29.0247C29.543 9.00835 30.0432 8.80926 30.414 8.44703C30.7849 8.08481 30.9957 7.58946 30.9997 7.07107V2.00007C31.0025 1.46948 30.7895 0.960529 30.4097 0.590068C29.8236 0.00516766 28.9378 -0.158147 28.1817 0.179322C27.4256 0.51679 26.9556 1.28526 26.9997 2.11207V7.07107C27.0036 7.58946 27.2144 8.08481 27.5853 8.44703C27.9562 8.80926 28.4563 9.00835 28.9747 9.00007Z" fill="#788393"/>
<path d="M29.0248 49.0001H28.9748C28.4564 48.9919 27.9562 49.191 27.5854 49.5532C27.2145 49.9154 27.0037 50.4107 26.9998 50.9291V56.0001C27.0014 56.5899 27.2625 57.149 27.7137 57.5287C28.1649 57.9084 28.7604 58.0703 29.3418 57.9711C30.3268 57.7645 31.0241 56.8843 30.9997 55.8781V50.9291C30.9958 50.4107 30.785 49.9154 30.4141 49.5532C30.0433 49.191 29.5431 48.9919 29.0248 49.0001Z" fill="#788393"/>
<path d="M18.751 9.50003C19.2123 10.4576 20.3407 10.8889 21.3231 10.4829C22.3054 10.077 22.8003 8.97493 22.451 7.97103L20.52 3.29003C20.2923 2.73105 19.8225 2.30613 19.2436 2.13546C18.6646 1.96479 18.0395 2.06695 17.545 2.41303C16.7609 3.01974 16.4907 4.08253 16.89 4.99003L18.751 9.50003Z" fill="#788393"/>
<path d="M39.2488 48.5001C38.7875 47.5425 37.6591 47.1113 36.6767 47.5172C35.6943 47.9232 35.1995 49.0252 35.5488 50.0291L37.4798 54.7101C37.9023 55.7318 39.0731 56.2176 40.0948 55.7951C41.1165 55.3726 41.6023 54.2018 41.1798 53.1801L39.2488 48.5001Z" fill="#788393"/>
<path d="M11.3197 8.49004C10.9239 8.09043 10.3777 7.87664 9.81587 7.9014C9.254 7.92616 8.72875 8.18717 8.36967 8.62004C7.713 9.46034 7.79944 10.6614 8.56967 11.399L12.0817 14.911C12.5872 15.4166 13.324 15.614 14.0146 15.429C14.7052 15.2439 15.2446 14.7045 15.4296 14.014C15.6146 13.3234 15.4172 12.5866 14.9117 12.081L11.3197 8.49004Z" fill="#788393"/>
<path d="M45.9188 43.0891C45.4133 42.5836 44.6765 42.3861 43.9859 42.5712C43.2953 42.7562 42.756 43.2956 42.5709 43.9862C42.3859 44.6767 42.5833 45.4136 43.0888 45.9191L46.5999 49.4301C47.2948 50.1579 48.4109 50.2842 49.2509 49.7301C49.7331 49.3897 50.0404 48.8536 50.0903 48.2654C50.1403 47.6772 49.9278 47.097 49.5099 46.6801L45.9188 43.0891Z" fill="#788393"/>
<path d="M21.3647 47.4901C20.8854 47.2676 20.3362 47.2495 19.8432 47.44C19.3503 47.6305 18.9559 48.0131 18.7507 48.5001L16.8197 53.1801C16.3972 54.2018 16.883 55.3726 17.9047 55.7951C18.9264 56.2176 20.0972 55.7318 20.5197 54.7101L22.4547 50.0271C22.6481 49.5463 22.6418 49.0082 22.4372 48.532C22.2326 48.0558 21.8466 47.6808 21.3647 47.4901Z" fill="#788393"/>
<path d="M7.07086 31.0001C7.58925 30.9962 8.0846 30.7854 8.44682 30.4145C8.80904 30.0437 9.00814 29.5435 8.99986 29.0251V28.9751C9.00814 28.4568 8.80904 27.9566 8.44682 27.5858C8.0846 27.2149 7.58925 27.0041 7.07086 27.0001H1.99985C1.43867 27.0002 0.903324 27.236 0.52449 27.65C0.145655 28.064 -0.04181 28.6182 0.00785474 29.1771C0.137029 30.2349 1.04646 31.0229 2.11186 31.0001H7.07086Z" fill="#788393"/>
<path d="M55.9998 27.0001H50.9288C50.4104 27.0041 49.915 27.2149 49.5528 27.5858C49.1906 27.9566 48.9915 28.4568 48.9998 28.9751V29.0251C48.9915 29.5435 49.1906 30.0436 49.5528 30.4145C49.915 30.7854 50.4104 30.9962 50.9288 31.0001H55.8778C56.8843 31.0244 57.7646 30.3266 57.9708 29.3411C58.0714 28.7597 57.9101 28.1634 57.53 27.712C57.1499 27.2606 56.5899 27.0001 55.9998 27.0001Z" fill="#788393"/>
<path d="M10.5268 36.6751C10.3442 36.1817 9.96972 35.7832 9.48861 35.5704C9.00751 35.3575 8.46073 35.3484 7.97281 35.5451L3.2898 37.4801C2.54192 37.7911 2.05329 38.5201 2.0498 39.3301C2.0758 40.0222 2.44832 40.6547 3.04097 41.0131C3.63363 41.3715 4.36684 41.4076 4.9918 41.1091L9.5018 39.2491C9.98125 39.0463 10.3595 38.6599 10.5521 38.1763C10.7447 37.6926 10.7356 37.152 10.5268 36.6751Z" fill="#788393"/>
<path d="M3.28977 20.5201L7.97277 22.4551C8.97667 22.8044 10.0787 22.3095 10.4846 21.3272C10.8906 20.3448 10.4594 19.2164 9.50177 18.7551L4.99177 16.8951C4.08386 16.4957 3.02064 16.7653 2.41277 17.5491C2.06825 18.0433 1.96701 18.6674 2.13758 19.2452C2.30815 19.8231 2.73206 20.2921 3.28977 20.5201Z" fill="#788393"/>
<path d="M54.7101 37.4801L50.0271 35.5451C49.0232 35.1958 47.9211 35.6907 47.5152 36.673C47.1092 37.6554 47.5405 38.7838 48.4981 39.2451L53.1801 41.1801C54.2018 41.6026 55.3726 41.1168 55.7951 40.0951C56.2176 39.0734 55.7318 37.9026 54.7101 37.4801Z" fill="#788393"/>
<path d="M14.8457 43.1261C14.4851 42.7525 13.9902 42.5384 13.4709 42.5315C12.9517 42.5245 12.4512 42.7253 12.0807 43.0891L8.48974 46.6801C8.07178 47.097 7.85933 47.6772 7.90928 48.2654C7.95923 48.8536 8.26647 49.3897 8.74874 49.7301C9.58872 50.2843 10.7048 50.1579 11.3997 49.4301L14.9107 45.9191C15.28 45.5439 15.4815 45.0351 15.4692 44.5089C15.457 43.9826 15.232 43.4837 14.8457 43.1261Z" fill="#788393"/>
<path d="M38.894 27.2111L24.894 19.2111C24.274 18.9013 23.5379 18.9346 22.9484 19.299C22.3589 19.6634 22 20.3071 22 21.0001V37.0001C22 37.6932 22.3589 38.3368 22.9484 38.7013C23.5379 39.0657 24.274 39.0989 24.894 38.7891L38.894 30.7891C39.5718 30.4504 39.9999 29.7578 39.9999 29.0001C39.9999 28.2425 39.5718 27.5499 38.894 27.2111Z" fill="#788393"/>
<path d="M37.0359 9.60006C37.2809 9.70171 37.5563 9.70181 37.8015 9.60034C38.0466 9.49888 38.2413 9.30416 38.3429 9.05906L40.2559 4.43906C40.4483 3.93346 40.2037 3.36649 39.7039 3.15948C39.2041 2.95246 38.6303 3.18047 38.4089 3.67406L36.4949 8.29206C36.3929 8.53723 36.3927 8.81289 36.4941 9.05825C36.5956 9.30361 36.7905 9.49854 37.0359 9.60006Z" fill="#788393"/>
<path d="M44.5558 14.443C44.8211 14.4438 45.0757 14.3383 45.2628 14.15L48.7998 10.6151C49.1905 10.2243 49.1905 9.59079 48.7998 9.20005C48.409 8.80931 47.7755 8.80931 47.3848 9.20005L43.8487 12.735C43.5621 13.0209 43.4762 13.4515 43.631 13.8255C43.7858 14.1996 44.1509 14.4434 44.5558 14.443Z" fill="#788393"/>
<path d="M48.4 20.9641C48.5016 21.2092 48.6963 21.4039 48.9415 21.5053C49.1866 21.6068 49.462 21.6067 49.707 21.5051L54.326 19.5921C54.8363 19.3808 55.0788 18.7959 54.8675 18.2856C54.6563 17.7752 54.0713 17.5328 53.561 17.7441L48.941 19.6571C48.6959 19.7586 48.5012 19.9534 48.3998 20.1985C48.2983 20.4436 48.2984 20.719 48.4 20.9641Z" fill="#788393"/>
</g>
<defs>
<clipPath id="clip0">
<rect width="58" height="58" fill="white"/>
</clipPath>
</defs>
</svg>