<svg version="1.1" xmlns="http://www.w3.org/2000/svg" width="96px" height="96px" viewBox="0 0 96 96"
  fill="currentColor" stroke="none" fill-rule="evenodd">
  <path d="M 48 24 C 40.269 24 34 30.269 34 38 C 34 45.730 40.269 52 48 52 C 55.730 52 62 45.730 62 38 C 62 30.269 55.730 24 48 24 Z M 42 56 C 33.164 56 26 63.164 26 72 C 26 76.418 29.582 80 34 80 L 62 80 C 66.418 80 70 76.418 70 72 C 70 63.164 62.836 56 54 56 Z M 69.281 43.617 C 71.898 33.641 67.25 23.184 58.094 18.445 C 62.727 15.277 68.801 15.184 73.527 18.207 C 78.259 21.227 80.727 26.781 79.797 32.313 C 78.871 37.848 74.730 42.297 69.277 43.613 Z M 78 72 L 80 72 C 84.418 72 88 68.418 88 64 C 88 55.164 80.836 48 72 48 L 67.602 48 C 67.055 49.066 66.426 50.086 65.715 51.047 C 73.305 55.289 78.004 63.305 78 72 Z M 16 30 C 16 24.805 18.875 20.039 23.468 17.613 C 28.063 15.191 33.621 15.512 37.906 18.445 C 28.738 23.176 24.089 33.641 26.723 43.617 C 20.434 42.102 16 36.473 16 30 Z M 28.398 48 L 24 48 C 15.164 48 8 55.164 8 64 C 8 68.418 11.582 72 16 72 L 18 72 C 17.996 63.305 22.695 55.289 30.285 51.047 C 29.574 50.086 28.945 49.066 28.398 48 Z M 28.398 48 "/>
</svg>
