<svg version="1.1" xmlns="http://www.w3.org/2000/svg" viewBox="0 0 96 96"
 fill="currentColor" id="has-paused-bin">
<path d="M 54.563 31.125 L 54.563 64.875 C 54.563 66.945 56.242 68.625 58.313 68.625 C 60.383 68.625 62.063 66.945 62.063 64.875 L 62.063 31.125 C 62.063 29.055 60.383 27.375 58.313 27.375 C 56.242 27.375 54.563 29.055 54.563 31.125 Z M 54.563 31.125 "/>
<path d="M 81.941 14.058 C 72.875 4.992 60.820 0 48 0 C 35.179 0 23.125 4.992 14.058 14.058 C 4.992 23.125 0 35.179 0 48 C 0 60.820 4.992 72.875 14.058 81.941 C 23.125 91.008 35.179 96 48 96 C 56.777 96 65.367 93.609 72.836 89.082 C 74.609 88.008 75.176 85.703 74.102 83.934 C 73.027 82.160 70.723 81.594 68.949 82.668 C 62.652 86.484 55.406 88.5 48 88.5 C 25.668 88.5 7.5 70.332 7.5 48 C 7.5 25.668 25.668 7.5 48 7.5 C 70.332 7.5 88.5 25.668 88.5 48 C 88.5 55.984 86.125 63.758 81.633 70.477 C 80.480 72.199 80.945 74.527 82.664 75.680 C 84.387 76.832 86.715 76.367 87.867 74.648 C 93.188 66.688 96 57.473 96 48 C 96 35.179 91.008 23.125 81.941 14.058 Z M 81.941 14.058 "/>
<path d="M 33.937 31.125 L 33.937 64.875 C 33.937 66.945 35.617 68.625 37.688 68.625 C 39.758 68.625 41.438 66.945 41.438 64.875 L 41.438 31.125 C 41.438 29.055 39.758 27.375 37.688 27.375 C 35.617 27.375 33.937 29.055 33.937 31.125 Z M 33.937 31.125 "/>
</svg>
