<svg version="1.1" xmlns="http://www.w3.org/2000/svg" viewBox="0 0 96 96"
 fill="currentColor" id="has-ended-bin">
<path d="M 79.5 7.5 L 87.75 7.5 L 87.75 0 L 8.25 0 L 8.25 7.5 L 16.5 7.5 L 16.5 16.512 L 37.480 47.981 L 16.125 79.473 L 16.125 88.5 L 8.25 88.5 L 8.25 96 L 87.75 96 L 87.75 88.5 L 79.5 88.5 L 79.5 79.488 L 58.508 48 L 79.5 16.512 Z M 38.883 88.5 L 47.981 74.852 L 56.961 88.5 Z M 49.492 48 L 72 81.762 L 72 88.5 L 65.941 88.5 L 48.019 61.273 L 29.867 88.5 L 23.625 88.5 L 23.625 81.777 L 46.519 48.019 L 34.383 29.813 L 24 14.238 L 24 7.5 L 72 7.5 L 72 14.238 Z M 49.492 48 "/>
</svg>
