<svg width="24" height="25" viewBox="0 0 24 25" fill="none" xmlns="http://www.w3.org/2000/svg">
<path d="M14.4316 21.5002H7.78422C6.24896 21.5002 5 20.2386 5 18.6877V9.1604C5 7.60954 6.24896 6.3479 7.78422 6.3479H14.4316C15.9668 6.3479 17.2158 7.60954 17.2158 9.1604V18.6877C17.2158 20.2386 15.9668 21.5002 14.4316 21.5002ZM7.78422 7.75415C7.01666 7.75415 6.39211 8.38504 6.39211 9.1604V18.6877C6.39211 19.4631 7.01666 20.094 7.78422 20.094H14.4316C15.1991 20.094 15.8237 19.4631 15.8237 18.6877V9.1604C15.8237 8.38504 15.1991 7.75415 14.4316 7.75415H7.78422ZM20 16.9299V6.31274C20 4.76189 18.751 3.50024 17.2158 3.50024H9.48956C9.1051 3.50024 8.7935 3.815 8.7935 4.20337C8.7935 4.59174 9.1051 4.90649 9.48956 4.90649H17.2158C17.9833 4.90649 18.6079 5.53738 18.6079 6.31274V16.9299C18.6079 17.3183 18.9195 17.6331 19.3039 17.6331C19.6884 17.6331 20 17.3183 20 16.9299Z" fill="#2196F3"/>
</svg>
