<svg width="24" height="24" viewBox="0 0 24 24" fill="none" xmlns="http://www.w3.org/2000/svg">
  <g clip-path="url(#clip0)">
    <path d="M21.75 2.99997H8.21116C7.53364 2.99997 6.89866 3.30025 6.4687 3.82539L0.169183 11.5254C-0.0563943 11.8015 -0.0563943 12.1985 0.169183 12.4746L6.46948 20.1753C6.89866 20.6997 7.5337 21 8.21116 21H21.75C22.9907 21 24 19.9907 24 18.75V5.25002C24 4.00927 22.9907 2.99997 21.75 2.99997ZM18.3106 14.6895L16.1895 16.8106L13.5 14.1211L10.8106 16.8106L8.6895 14.6895L11.3789 12L8.6895 9.31058L10.8106 7.18948L13.5 9.87892L16.1895 7.18948L18.3106 9.31058L15.6211 12C15.6211 12 18.3106 14.6895 18.3106 14.6895Z"
      fill="#788393"/>
  </g>
  <defs>
    <clipPath id="clip0">
      <rect width="24" height="24" fill="white"/>
    </clipPath>
  </defs>
</svg>
