<svg width="24" height="24" viewBox="0 0 24 24" fill="none" xmlns="http://www.w3.org/2000/svg">
<path d="M15.2244 5.25534C14.8386 5.25534 14.526 4.95519 14.526 4.58488V0H8.69853C8.31281 0 8 0.300151 8 0.67063V3.76804H9.90177C10.0896 3.76804 10.2673 3.84106 10.3963 3.96472L15.8703 9.22023C15.9932 9.33801 16.0752 9.50827 16.0752 9.69402V18H19.3015C19.6874 18 20 17.6997 20 17.3294V5.25534H15.2244Z" fill="#788393"/>
<path d="M16 1V4H19L16 1Z" fill="#788393"/>
<path d="M9.52548 9.87084V5H3.69853C3.31264 5 3 5.31905 3 5.71246V22.2875C3 22.6811 3.31264 23 3.69853 23H14.3015C14.6872 23 15 22.6811 15 22.2875V10.5833H10.2238C9.83829 10.5833 9.52548 10.2646 9.52548 9.87084Z" fill="#788393"/>
<path d="M11 9H14L11 6V9Z" fill="#788393"/>
</svg>
