<svg width="33" height="33" viewBox="0 0 33 33" fill="none" xmlns="http://www.w3.org/2000/svg">
<path d="M29.2695 0H3.73238C1.67392 0 0 1.7851 0 3.9836V29.0209C0 31.2168 1.67392 33 3.73238 33H29.2694C31.3278 33 33 31.2168 33 29.0209V3.9836C33.0001 1.7851 31.328 0 29.2695 0ZM21.3395 5.92438C23.3302 5.92438 24.9446 7.64667 24.9446 9.7701C24.9446 11.8935 23.3301 13.6158 21.3395 13.6158C19.3484 13.6158 17.7345 11.8935 17.7345 9.7701C17.7345 7.64667 19.3484 5.92438 21.3395 5.92438ZM28.099 29.3195H16.4997H5.41724C4.42159 29.3195 3.97817 28.551 4.42701 27.603L10.6139 14.5305C11.0622 13.5826 11.9165 13.498 12.5215 14.3414L18.7427 23.0142C19.3477 23.8578 20.4052 23.9295 21.1051 23.1738L22.6271 21.5298C23.3264 20.774 24.3569 20.8676 24.9277 21.7374L28.8686 27.7426C29.4383 28.6137 29.0946 29.3195 28.099 29.3195Z" fill="#5f9ea0"/>
</svg>
