<svg width="25" height="25" viewBox="0 0 25 25" fill="none" xmlns="http://www.w3.org/2000/svg">
<path d="M10.3027 11.3281V15.4785H14.6973V11.3281H13.2324V13.2812C13.2324 13.6857 12.9045 14.0137 12.5 14.0137C12.0955 14.0137 11.7676 13.6857 11.7676 13.2812V11.3281H10.3027Z" fill="#FFDDAB"/>
<path d="M10.3027 22.8027H14.6973V25H10.3027V22.8027Z" fill="#FFDDAB"/>
<path d="M16.1621 12.0605V16.2109C16.1621 16.6154 15.8342 16.9434 15.4297 16.9434H9.57031C9.16582 16.9434 8.83789 16.6154 8.83789 16.2109V11.3281H7.37305C6.96855 11.3281 6.64062 11.6561 6.64062 12.0605V24.2676C6.64062 24.6721 6.96855 25 7.37305 25H8.83789V22.0703C8.83789 21.6658 9.16582 21.3379 9.57031 21.3379H15.4297C15.8342 21.3379 16.1621 21.6658 16.1621 22.0703V25H17.627C18.0314 25 18.3594 24.6721 18.3594 24.2676V14.5612C18.3594 14.3669 18.2822 14.1806 18.1449 14.0433L16.1621 12.0605ZM13.9648 19.873H11.0352C10.6307 19.873 10.3027 19.5451 10.3027 19.1406C10.3027 18.7361 10.6307 18.4082 11.0352 18.4082H13.9648C14.3693 18.4082 14.6973 18.7361 14.6973 19.1406C14.6973 19.5451 14.3693 19.873 13.9648 19.873Z" fill="#FFDDAB"/>
<path d="M21.0369 7.86899C21.0422 7.7689 21.0449 7.6686 21.0449 7.56836C21.0449 4.47212 18.5259 1.95312 15.4297 1.95312C14.5938 1.95312 13.7748 2.1394 13.0252 2.49634C11.8831 0.940918 10.0572 0 8.10547 0C4.73999 0 2.00195 2.73804 2.00195 6.10352C2.00195 6.66646 2.08003 7.22285 2.23457 7.7645C0.872705 8.71758 0.0488281 10.2754 0.0488281 11.9629C0.0488281 14.7899 2.34878 17.0898 5.17578 17.0898V12.0605C5.17578 10.847 6.15952 9.86328 7.37305 9.86328H15.4297C15.8182 9.86328 16.1908 10.0176 16.4655 10.2923L16.4653 10.2925L19.1806 13.0073C19.5927 13.4193 19.8242 13.9783 19.8242 14.5611V17.0898H20.3125C22.8703 17.0898 24.9512 15.0089 24.9512 12.4512C24.9512 10.1397 23.2519 8.21777 21.0369 7.86899Z" fill="#FFDDAB"/>
</svg>
