<?xml version="1.0" encoding="utf-8"?>
<svg version="1.1" xmlns="http://www.w3.org/2000/svg" viewBox="0 0 96 96" id="user-man-bin">
<path fill="currentColor"
 d="M79.840,70.805 L60.949,60.344 C67.973,54.820 69.879,43.965 69.879,37.879 L69.879,25.211 C69.879,16.820 58.734,7.480 47.539,7.480 C36.348,7.480 24.906,16.820 24.906,25.211 L24.906,37.879 C24.906,43.414 27.246,54.605 34.340,60.293 L14.965,70.805 C14.965,70.805 9.898,73.059 9.898,75.871 L9.898,83.473 C9.898,86.270 12.172,88.539 14.965,88.539 L79.840,88.539 C82.633,88.539 84.902,86.270 84.902,83.473 L84.902,75.871 C84.902,72.887 79.836,70.805 79.836,70.805 Z M78.902,82.547 L15.898,82.547 L15.898,77.180 C16.328,76.867 16.934,76.504 17.406,76.285 C17.547,76.223 17.688,76.156 17.824,76.078 L37.199,65.566 C38.969,64.609 40.137,62.832 40.316,60.832 C40.496,58.828 39.660,56.871 38.094,55.613 C33.063,51.578 30.906,42.648 30.906,37.883 L30.906,25.211 C30.906,20.902 39.031,13.480 47.539,13.480 C56.203,13.480 63.879,20.801 63.879,25.211 L63.879,37.883 C63.879,42.578 62.422,51.551 57.242,55.625 C55.660,56.875 54.805,58.836 54.973,60.844 C55.141,62.852 56.309,64.645 58.078,65.609 L76.965,76.074 C77.129,76.164 77.344,76.262 77.516,76.340 C77.961,76.531 78.504,76.844 78.902,77.117 Z"/>
</svg>
