<?xml version="1.0" encoding="utf-8"?>
<svg version="1.1" xmlns="http://www.w3.org/2000/svg" viewBox="0 0 32 32"
 fill="currentColor" id="user-man">
<path d="M26.613,23.602 l-6.296,-3.488 c2.34,-1.841 2.976,-5.459 2.976,-7.488 v-4.223 c0,-2.796 -3.715,-5.91 -7.447,-5.91 -3.73,0 -7.544,3.114 -7.544,5.91 v4.223 c0,1.845 0.78,5.576 3.144,7.472 l-6.458,3.503 s-1.688,0.752 -1.688,1.689 v2.534 c0,0.933 0.757,1.689 1.688,1.689 h21.625 c0.931,0 1.688,-0.757 1.688,-1.689 v-2.534 c0,-0.994 -1.689,-1.689 -1.689,-1.689 z M26.301,27.515 h-21.001 v-1.788 c0.143,-0.105 0.344,-0.226 0.502,-0.298 0.047,-0.021 0.094,-0.044 0.139,-0.070 l6.459,-3.503 c0.589,-0.32 0.979,-0.912 1.039,-1.579 s-0.219,-1.32 -0.741,-1.739 c-1.677,-1.345 -2.396,-4.322 -2.396,-5.911 v-4.223 c0,-1.437 2.708,-3.91 5.544,-3.91 2.889,0 5.447,2.44 5.447,3.91 v4.223 c0,1.566 -0.486,4.557 -2.212,5.915 -0.528,0.416 -0.813,1.070 -0.757,1.739 s0.446,1.267 1.035,1.589 l6.296,3.488 c0.055,0.030 0.126,0.063 0.184,0.089 0.148,0.063 0.329,0.167 0.462,0.259 v1.809 z" />
</svg>