<svg version="1.1" xmlns="http://www.w3.org/2000/svg" width="96px" height="96px" viewBox="0 0 96 96"
  fill="none" stroke="currentColor" stroke-linecap="round" stroke-miterlimit="4" stroke-width="1">
<path d="M 10.400391 5.599609 C 10.400391 4.845703 10.400391 4.46875 10.634766 4.234375 C 10.868164 4 11.246094 4 12 4 C 12.753906 4 13.131836 4 13.365234 4.234375 C 13.599609 4.46875 13.599609 4.845703 13.599609 5.599609 L 13.599609 6.631836 C 13.972656 6.743164 14.329102 6.891602 14.664062 7.073242 L 15.394531 6.342773 C 15.927734 5.80957 16.194336 5.542969 16.525391 5.542969 C 16.856445 5.542969 17.124023 5.80957 17.657227 6.342773 C 18.19043 6.876953 18.457031 7.143555 18.457031 7.474609 C 18.457031 7.805664 18.19043 8.072266 17.657227 8.605469 L 16.926758 9.335938 C 17.108398 9.671875 17.256836 10.027344 17.368164 10.400391 L 18.400391 10.400391 C 19.154297 10.400391 19.53125 10.400391 19.765625 10.634766 C 20 10.868164 20 11.246094 20 12 C 20 12.753906 20 13.131836 19.765625 13.365234 C 19.53125 13.599609 19.154297 13.599609 18.400391 13.599609 L 17.368164 13.599609 C 17.256836 13.972656 17.108398 14.328125 16.926758 14.664062 L 17.657227 15.394531 C 18.19043 15.927734 18.457031 16.194336 18.457031 16.525391 C 18.457031 16.856445 18.19043 17.123047 17.657227 17.657227 C 17.124023 18.19043 16.856445 18.457031 16.525391 18.457031 C 16.194336 18.457031 15.927734 18.19043 15.394531 17.657227 L 14.664062 16.926758 C 14.328125 17.108398 13.972656 17.256836 13.599609 17.368164 L 13.599609 18.400391 C 13.599609 19.154297 13.599609 19.53125 13.365234 19.765625 C 13.131836 20 12.753906 20 12 20 C 11.246094 20 10.868164 20 10.634766 19.765625 C 10.400391 19.53125 10.400391 19.154297 10.400391 18.400391 L 10.400391 17.368164 C 10.027344 17.256836 9.671875 17.108398 9.335938 16.926758 L 8.606445 17.657227 C 8.072266 18.19043 7.805664 18.457031 7.474609 18.457031 C 7.143555 18.457031 6.876953 18.19043 6.342773 17.657227 C 5.80957 17.123047 5.542969 16.856445 5.542969 16.525391 C 5.542969 16.194336 5.80957 15.927734 6.342773 15.394531 L 7.073242 14.664062 C 6.891602 14.329102 6.743164 13.972656 6.631836 13.599609 L 5.599609 13.599609 C 4.845703 13.599609 4.46875 13.599609 4.234375 13.365234 C 4 13.131836 4 12.753906 4 12 C 4 11.246094 4 10.868164 4.234375 10.634766 C 4.46875 10.400391 4.845703 10.400391 5.599609 10.400391 L 6.631836 10.400391 C 6.743164 10.027344 6.891602 9.670898 7.073242 9.335938 L 6.342773 8.605469 C 5.80957 8.072266 5.542969 7.805664 5.542969 7.474609 C 5.542969 7.143555 5.80957 6.876953 6.342773 6.342773 C 6.876953 5.80957 7.143555 5.542969 7.474609 5.542969 C 7.805664 5.542969 8.072266 5.80957 8.605469 6.342773 L 9.335938 7.073242 C 9.671875 6.891602 10.027344 6.743164 10.400391 6.631836 Z M 10.400391 5.599609 " transform="matrix(4,0,0,4,0,0)"/>
<path d="M 14.400391 12 C 14.400391 13.325195 13.325195 14.400391 12 14.400391 C 10.674805 14.400391 9.599609 13.325195 9.599609 12 C 9.599609 10.674805 10.674805 9.599609 12 9.599609 C 13.325195 9.599609 14.400391 10.674805 14.400391 12 Z M 14.400391 12 " transform="matrix(4,0,0,4,0,0)"/>
</svg>