<?xml version="1.0" encoding="UTF-8"?>
<svg version="1.1" xmlns="http://www.w3.org/2000/svg" viewBox="0 0 96 96" id="file-circle-pen-bin">
<g fill="none" stroke="currentColor" stroke-linecap="round" stroke-linejoin="round" stroke-width="6">
  <path d="M64,12.0  h-28 a4,4 0,0,0 -4,2  l-14,14 a4,4 0,0,0 -2,4  v44 a8,8 0,0,0 8,8 h12 m36,-48 v-16 a8,8 0,0,0 -8,-8  m-48,20 h14 a6,6 0,0,0 6,-6 v-14" />
  <path d="M80,55 a22,22 0,1,1 -40,0 22,22 0,0,1 40,0 Z" />
  <path d="M49,74 l3.0,-9.4 14,-14 a2,2 0,0,1 2,0 l5,5 a2,2 0,0,1 0,2 l-14,14 z M61,55.4 l7,7.2" />
</g>
</svg>