<svg version="1.1" xmlns="http://www.w3.org/2000/svg" width="96px" height="96px" viewBox="0 0 96 96" fill="#90CBF9">
<path d="M 51.718 51.679 C 51.718 55.808 48.355 59.168 44.226 59.168 C 40.098 59.168 36.738 55.808 36.738 51.679 C 36.738 48.914 38.246 46.496 40.480 45.199 L 40.480 24.527 L 47.973 24.527 L 47.973 45.199 C 50.207 46.496 51.718 48.914 51.718 51.679 Z M 95.964 72.464 L 57.519 96 L 57.519 48.929 Z M 65.012 82.633 L 81.621 72.465 L 65.012 62.297 Z M 7.527 51.679 C 7.527 31.441 23.992 14.980 44.226 14.980 C 64.465 14.980 80.926 31.441 80.926 51.679 C 80.926 52.597 80.890 53.512 80.824 54.414 L 87.859 58.718 C 88.226 56.414 88.417 54.062 88.417 51.679 C 88.417 39.875 83.820 28.777 75.473 20.434 C 75.160 20.117 74.839 19.812 74.519 19.508 L 77.621 15.789 L 82.707 20.027 L 87.504 14.277 L 71.582 1 L 66.785 6.754 L 71.871 10.992 L 68.660 14.843 C 62.5 10.742 55.426 8.269 47.973 7.648 L 47.973 0 L 40.480 0 L 40.480 7.648 C 30.089 8.515 20.437 12.976 12.980 20.434 C 4.633 28.777 0.035 39.875 0.035 51.679 C 0.035 63.484 4.633 74.582 12.980 82.926 C 21.328 91.273 32.422 95.871 44.226 95.871 C 46.184 95.871 48.121 95.742 50.031 95.492 L 50.031 87.918 C 48.140 88.223 46.203 88.379 44.227 88.379 C 23.992 88.379 7.527 71.918 7.527 51.679 Z M 7.527 51.679 "/>
</svg>
