<svg width="300" height="300" viewBox="0 0 300 300" fill="none" xmlns="http://www.w3.org/2000/svg">
<path d="M161.615 161.499C161.615 174.405 151.115 184.905 138.209 184.905C125.303 184.905 114.803 174.405 114.803 161.499C114.803 152.855 119.517 145.295 126.506 141.242V76.6536H149.912V141.242C156.9 145.295 161.615 152.855 161.615 161.499ZM299.885 226.45L179.754 300V152.9L299.885 226.45ZM203.16 258.225L255.06 226.45L203.16 194.674V258.225ZM23.5211 161.499C23.5211 98.26 74.9697 46.8114 138.209 46.8114C201.448 46.8114 252.897 98.26 252.897 161.499C252.897 164.373 252.787 167.221 252.579 170.043L274.56 183.501C275.708 176.291 276.303 168.941 276.303 161.499C276.303 124.613 261.939 89.9346 235.856 63.8525C234.876 62.8723 233.88 61.9139 232.876 60.9671L242.571 49.3409L258.459 62.5903L273.449 44.6147L223.696 3.12524L208.706 21.1008L224.594 34.3502L214.559 46.3836C195.318 33.5649 173.208 25.8434 149.911 23.9007V0H126.506V23.9013C94.0336 26.6087 63.8655 40.548 40.5616 63.8519C14.4795 89.9346 0.115417 124.613 0.115417 161.499C0.115417 198.385 14.4795 233.064 40.5622 259.146C66.6443 285.229 101.322 299.593 138.209 299.593C144.327 299.593 150.381 299.189 156.348 298.411V274.748C150.438 275.691 144.38 276.187 138.209 276.187C74.9697 276.187 23.5211 224.738 23.5211 161.499Z" fill="#75BBF0"/>
</svg>
