<svg width="300" height="300" viewBox="0 0 300 300" fill="none" xmlns="http://www.w3.org/2000/svg">
<path d="M170.508 97.2656V202.734C170.508 209.207 175.754 214.453 182.227 214.453C188.699 214.453 193.945 209.207 193.945 202.734V97.2656C193.945 90.7934 188.699 85.5469 182.227 85.5469C175.754 85.5469 170.508 90.7934 170.508 97.2656Z" fill="#ACBCD2"/>
<path d="M256.066 43.9336C227.735 15.6029 190.066 0 150 0C109.934 0 72.2654 15.6029 43.9336 43.9336C15.6029 72.2654 0 109.934 0 150C0 190.066 15.6029 227.735 43.9336 256.066C72.2654 284.397 109.934 300 150 300C177.429 300 204.267 292.525 227.614 278.383C233.15 275.03 234.919 267.824 231.566 262.288C228.212 256.752 221.006 254.984 215.471 258.336C195.787 270.26 173.147 276.562 150 276.562C80.2131 276.562 23.4375 219.787 23.4375 150C23.4375 80.2131 80.2131 23.4375 150 23.4375C219.787 23.4375 276.562 80.2131 276.562 150C276.562 174.954 269.142 199.245 255.102 220.245C251.504 225.626 252.95 232.903 258.33 236.5C263.712 240.098 270.989 238.652 274.586 233.271C291.212 208.403 300 179.608 300 150C300 109.934 284.397 72.2654 256.066 43.9336Z" fill="#ACBCD2"/>
<path d="M106.055 97.2656V202.734C106.055 209.207 111.301 214.453 117.773 214.453C124.246 214.453 129.492 209.207 129.492 202.734V97.2656C129.492 90.7934 124.246 85.5469 117.773 85.5469C111.301 85.5469 106.055 90.7934 106.055 97.2656Z" fill="#ACBCD2"/>
</svg>
